<mxfile host="app.diagrams.net" agent="Mozilla/5.0 (Windows NT 10.0; Win64; x64) AppleWebKit/537.36 (KHTML, like Gecko) Chrome/137.0.0.0 Safari/537.36" version="27.0.4">
  <diagram name="Pagina-1" id="-Fz7-ZmVYmnUhRggLUEh">
    <mxGraphModel dx="1045" dy="562" grid="1" gridSize="10" guides="1" tooltips="1" connect="1" arrows="1" fold="1" page="1" pageScale="1" pageWidth="827" pageHeight="1169" math="0" shadow="0">
      <root>
        <mxCell id="0" />
        <mxCell id="1" parent="0" />
        <mxCell id="c5NniUcqb0iYCsrQQCgW-1" value="" style="rounded=0;whiteSpace=wrap;html=1;" vertex="1" parent="1">
          <mxGeometry x="30" y="20" width="280" height="400" as="geometry" />
        </mxCell>
        <mxCell id="c5NniUcqb0iYCsrQQCgW-3" value="Benvenuto&lt;div&gt;al&lt;/div&gt;&lt;div&gt;QUIZZONE BELLISSIMO&lt;/div&gt;" style="text;html=1;align=center;verticalAlign=middle;whiteSpace=wrap;rounded=0;" vertex="1" parent="1">
          <mxGeometry x="80" y="50" width="180" height="60" as="geometry" />
        </mxCell>
        <mxCell id="c5NniUcqb0iYCsrQQCgW-4" value="Scegli la difficoltÃ " style="text;html=1;align=center;verticalAlign=middle;whiteSpace=wrap;rounded=0;" vertex="1" parent="1">
          <mxGeometry x="85" y="150" width="170" height="30" as="geometry" />
        </mxCell>
        <mxCell id="c5NniUcqb0iYCsrQQCgW-5" value="FACILE" style="rounded=0;whiteSpace=wrap;html=1;" vertex="1" parent="1">
          <mxGeometry x="50" y="240" width="240" height="30" as="geometry" />
        </mxCell>
        <mxCell id="c5NniUcqb0iYCsrQQCgW-6" value="MEDIA" style="rounded=0;whiteSpace=wrap;html=1;" vertex="1" parent="1">
          <mxGeometry x="50" y="290" width="240" height="30" as="geometry" />
        </mxCell>
        <mxCell id="c5NniUcqb0iYCsrQQCgW-7" value="DIFFICILE" style="rounded=0;whiteSpace=wrap;html=1;" vertex="1" parent="1">
          <mxGeometry x="50" y="340" width="240" height="30" as="geometry" />
        </mxCell>
        <mxCell id="c5NniUcqb0iYCsrQQCgW-8" value="" style="rounded=0;whiteSpace=wrap;html=1;" vertex="1" parent="1">
          <mxGeometry x="410" y="20" width="280" height="400" as="geometry" />
        </mxCell>
        <mxCell id="c5NniUcqb0iYCsrQQCgW-9" value="ESCI" style="rounded=0;whiteSpace=wrap;html=1;" vertex="1" parent="1">
          <mxGeometry x="414" y="30" width="56" height="20" as="geometry" />
        </mxCell>
        <mxCell id="c5NniUcqb0iYCsrQQCgW-10" value="" style="endArrow=none;html=1;rounded=0;entryX=0.821;entryY=0.75;entryDx=0;entryDy=0;entryPerimeter=0;" edge="1" parent="1">
          <mxGeometry width="50" height="50" relative="1" as="geometry">
            <mxPoint x="425.06" y="60" as="sourcePoint" />
            <mxPoint x="674.94" y="60" as="targetPoint" />
            <Array as="points">
              <mxPoint x="545.06" y="60" />
            </Array>
          </mxGeometry>
        </mxCell>
        <mxCell id="c5NniUcqb0iYCsrQQCgW-11" value="Punteggio: [punteggio]" style="text;html=1;align=center;verticalAlign=middle;whiteSpace=wrap;rounded=0;" vertex="1" parent="1">
          <mxGeometry x="540" y="25" width="160" height="30" as="geometry" />
        </mxCell>
        <mxCell id="c5NniUcqb0iYCsrQQCgW-14" value="" style="rounded=0;whiteSpace=wrap;html=1;shadow=0;fillColor=#a20025;fontColor=#ffffff;strokeColor=#6F0000;" vertex="1" parent="1">
          <mxGeometry x="430" y="80" width="120" height="20" as="geometry" />
        </mxCell>
        <mxCell id="c5NniUcqb0iYCsrQQCgW-16" value="" style="rounded=0;whiteSpace=wrap;html=1;" vertex="1" parent="1">
          <mxGeometry x="550" y="80" width="120" height="20" as="geometry" />
        </mxCell>
        <mxCell id="c5NniUcqb0iYCsrQQCgW-17" value="[timer]" style="text;html=1;align=center;verticalAlign=middle;whiteSpace=wrap;rounded=0;" vertex="1" parent="1">
          <mxGeometry x="520" y="75" width="110" height="30" as="geometry" />
        </mxCell>
        <mxCell id="c5NniUcqb0iYCsrQQCgW-18" value="[testo della domanda]" style="text;html=1;align=center;verticalAlign=middle;whiteSpace=wrap;rounded=0;" vertex="1" parent="1">
          <mxGeometry x="450" y="120" width="200" height="30" as="geometry" />
        </mxCell>
        <mxCell id="c5NniUcqb0iYCsrQQCgW-19" value="&amp;nbsp; A) [testo della rispsta, opzione A]" style="rounded=0;whiteSpace=wrap;html=1;align=left;" vertex="1" parent="1">
          <mxGeometry x="430" y="170" width="240" height="30" as="geometry" />
        </mxCell>
        <mxCell id="c5NniUcqb0iYCsrQQCgW-20" value="&amp;nbsp; B) [testo della rispsta, opzione B]" style="rounded=0;whiteSpace=wrap;html=1;align=left;" vertex="1" parent="1">
          <mxGeometry x="430" y="220" width="240" height="30" as="geometry" />
        </mxCell>
        <mxCell id="c5NniUcqb0iYCsrQQCgW-21" value="&amp;nbsp; C) [testo della rispsta, opzione C]" style="rounded=0;whiteSpace=wrap;html=1;align=left;" vertex="1" parent="1">
          <mxGeometry x="430" y="270" width="240" height="30" as="geometry" />
        </mxCell>
        <mxCell id="c5NniUcqb0iYCsrQQCgW-22" value="&amp;nbsp; D) [testo della rispsta, opzione D]" style="rounded=0;whiteSpace=wrap;html=1;align=left;" vertex="1" parent="1">
          <mxGeometry x="430" y="320" width="240" height="30" as="geometry" />
        </mxCell>
        <mxCell id="c5NniUcqb0iYCsrQQCgW-23" value="SALTA" style="rounded=0;whiteSpace=wrap;html=1;" vertex="1" parent="1">
          <mxGeometry x="600" y="370" width="70" height="30" as="geometry" />
        </mxCell>
        <mxCell id="c5NniUcqb0iYCsrQQCgW-24" value="" style="rounded=0;whiteSpace=wrap;html=1;" vertex="1" parent="1">
          <mxGeometry x="30" y="470" width="280" height="400" as="geometry" />
        </mxCell>
        <mxCell id="c5NniUcqb0iYCsrQQCgW-25" value="IL TUO PUNTEGGIO:" style="text;html=1;align=center;verticalAlign=middle;whiteSpace=wrap;rounded=0;" vertex="1" parent="1">
          <mxGeometry x="85" y="520" width="170" height="30" as="geometry" />
        </mxCell>
        <mxCell id="c5NniUcqb0iYCsrQQCgW-26" value="[punteggio]" style="rounded=0;whiteSpace=wrap;html=1;" vertex="1" parent="1">
          <mxGeometry x="110" y="555" width="120" height="30" as="geometry" />
        </mxCell>
        <mxCell id="c5NniUcqb0iYCsrQQCgW-27" value="Risposte giuste:" style="text;html=1;align=center;verticalAlign=middle;whiteSpace=wrap;rounded=0;" vertex="1" parent="1">
          <mxGeometry x="50" y="630" width="110" height="20" as="geometry" />
        </mxCell>
        <mxCell id="c5NniUcqb0iYCsrQQCgW-28" value="[risposte giuste, esempio 5/5, 0/5 etc]" style="rounded=0;whiteSpace=wrap;html=1;" vertex="1" parent="1">
          <mxGeometry x="160" y="615" width="120" height="50" as="geometry" />
        </mxCell>
        <mxCell id="c5NniUcqb0iYCsrQQCgW-29" value="Risposte saltate:" style="text;html=1;align=center;verticalAlign=middle;whiteSpace=wrap;rounded=0;" vertex="1" parent="1">
          <mxGeometry x="50" y="695" width="110" height="20" as="geometry" />
        </mxCell>
        <mxCell id="c5NniUcqb0iYCsrQQCgW-30" value="[risposte saltate, esempio 5/5, 0/5 etc]" style="rounded=0;whiteSpace=wrap;html=1;" vertex="1" parent="1">
          <mxGeometry x="160" y="680" width="120" height="50" as="geometry" />
        </mxCell>
        <mxCell id="c5NniUcqb0iYCsrQQCgW-31" value="Salva punteggio:&amp;nbsp; __ __ __" style="rounded=0;whiteSpace=wrap;html=1;" vertex="1" parent="1">
          <mxGeometry x="50" y="750" width="240" height="40" as="geometry" />
        </mxCell>
        <mxCell id="c5NniUcqb0iYCsrQQCgW-32" value="ESCI" style="rounded=0;whiteSpace=wrap;html=1;" vertex="1" parent="1">
          <mxGeometry x="60" y="810" width="56" height="20" as="geometry" />
        </mxCell>
        <mxCell id="c5NniUcqb0iYCsrQQCgW-33" value="RIPROVA" style="rounded=0;whiteSpace=wrap;html=1;" vertex="1" parent="1">
          <mxGeometry x="210" y="810" width="70" height="20" as="geometry" />
        </mxCell>
      </root>
    </mxGraphModel>
  </diagram>
</mxfile>
